{
  "accessors": [
    {
      "bufferView": 2,
      "componentType": 5126,
      "count": 4197,
      "max": [
        8797.9677734375,
        398.73187255859375,
        1737.921630859375
      ],
      "min": [
        -2443.88720703125,
        -1759.7437744140625,
        -1737.921630859375
      ],
      "type": "VEC3"
    },
    {
      "bufferView": 2,
      "byteOffset": 50364,
      "componentType": 5126,
      "count": 4197,
      "max": [
        1.0,
        1.0,
        1.0
      ],
      "min": [
        -1.0,
        -1.0,
        -1.0
      ],
      "type": "VEC3"
    },
    {
      "bufferView": 3,
      "componentType": 5126,
      "count": 4197,
      "max": [
        1.0,
        1.0,
        1.0,
        1.0
      ],
      "min": [
        -1.0,
        -1.0,
        -1.0,
        -1.0
      ],
      "type": "VEC4"
    },
    {
      "bufferView": 1,
      "componentType": 5126,
      "count": 4197,
      "max": [
        2.975924015045166,
        0.9722529649734497
      ],
      "min": [
        2.019068956375122,
        0.030605999752879143
      ],
      "type": "VEC2"
    },
    {
      "bufferView": 0,
      "componentType": 5125,
      "count": 10008,
      "type": "SCALAR"
    },
    {
      "bufferView": 2,
      "byteOffset": 100728,
      "componentType": 5126,
      "count": 8,
      "max": [
        8903.8134765625,
        6242.44140625,
        1848.9256591796875
      ],
      "min": [
        -2592.9306640625,
        -1536.8509521484375,
        -1848.9256591796875
      ],
      "type": "VEC3"
    },
    {
      "bufferView": 2,
      "byteOffset": 100824,
      "componentType": 5126,
      "count": 8,
      "max": [
        0.0,
        1.0,
        0.0
      ],
      "min": [
        -1.0,
        0.0,
        0.0
      ],
      "type": "VEC3"
    },
    {
      "bufferView": 3,
      "byteOffset": 67152,
      "componentType": 5126,
      "count": 8,
      "max": [
        0.0,
        0.0,
        1.0,
        1.0
      ],
      "min": [
        0.0,
        0.0,
        1.0,
        1.0
      ],
      "type": "VEC4"
    },
    {
      "bufferView": 1,
      "byteOffset": 33576,
      "componentType": 5126,
      "count": 8,
      "max": [
        3.654439926147461,
        0.9600238800048828
      ],
      "min": [
        3.061229944229126,
        0.06372307986021042
      ],
      "type": "VEC2"
    },
    {
      "bufferView": 0,
      "byteOffset": 40032,
      "componentType": 5125,
      "count": 12,
      "type": "SCALAR"
    },
    {
      "bufferView": 2,
      "byteOffset": 100920,
      "componentType": 5126,
      "count": 928,
      "max": [
        10231.9619140625,
        6198.33154296875,
        2464.37646484375
      ],
      "min": [
        -2610.15185546875,
        1255.1796875,
        -2464.376220703125
      ],
      "type": "VEC3"
    },
    {
      "bufferView": 2,
      "byteOffset": 112056,
      "componentType": 5126,
      "count": 928,
      "max": [
        1.0,
        7.000000096013537e-06,
        0.9916486740112305
      ],
      "min": [
        -1.0,
        -1.0,
        -0.9916486740112305
      ],
      "type": "VEC3"
    },
    {
      "bufferView": 3,
      "byteOffset": 67280,
      "componentType": 5126,
      "count": 928,
      "max": [
        1.0,
        1.0,
        1.0,
        1.0
      ],
      "min": [
        -4.000000444648322e-06,
        -1.0,
        -1.0,
        -1.0
      ],
      "type": "VEC4"
    },
    {
      "bufferView": 1,
      "byteOffset": 33640,
      "componentType": 5126,
      "count": 928,
      "max": [
        1.7809823751449585,
        0.9280459880828857
      ],
      "min": [
        1.0677024126052856,
        0.07975800335407257
      ],
      "type": "VEC2"
    },
    {
      "bufferView": 0,
      "byteOffset": 40080,
      "componentType": 5125,
      "count": 2304,
      "type": "SCALAR"
    },
    {
      "bufferView": 2,
      "byteOffset": 123192,
      "componentType": 5126,
      "count": 19744,
      "max": [
        8812.6630859375,
        2785.7890625,
        2450.1220703125
      ],
      "min": [
        -2517.662353515625,
        -1649.79345703125,
        -2450.1220703125
      ],
      "type": "VEC3"
    },
    {
      "bufferView": 2,
      "byteOffset": 360120,
      "componentType": 5126,
      "count": 19744,
      "max": [
        1.0,
        1.0,
        1.0
      ],
      "min": [
        -1.0,
        -1.0,
        -1.0
      ],
      "type": "VEC3"
    },
    {
      "bufferView": 3,
      "byteOffset": 82128,
      "componentType": 5126,
      "count": 19744,
      "max": [
        1.0,
        0.9994384050369263,
        1.0,
        1.0
      ],
      "min": [
        -1.0,
        -0.9994383454322815,
        -1.0,
        -1.0
      ],
      "type": "VEC4"
    },
    {
      "bufferView": 1,
      "byteOffset": 41064,
      "componentType": 5126,
      "count": 19744,
      "max": [
        4.986618995666504,
        0.9722180962562561
      ],
      "min": [
        4.015812873840332,
        0.027014000341296196
      ],
      "type": "VEC2"
    },
    {
      "bufferView": 0,
      "byteOffset": 49296,
      "componentType": 5125,
      "count": 53868,
      "type": "SCALAR"
    },
    {
      "bufferView": 2,
      "byteOffset": 597048,
      "componentType": 5126,
      "count": 1123,
      "max": [
        8568.8603515625,
        5763.55126953125,
        2269.089111328125
      ],
      "min": [
        -2550.90625,
        -1537.8062744140625,
        -2269.089111328125
      ],
      "type": "VEC3"
    },
    {
      "bufferView": 2,
      "byteOffset": 610524,
      "componentType": 5126,
      "count": 1123,
      "max": [
        1.0,
        1.0,
        1.0
      ],
      "min": [
        -1.0,
        -1.0,
        -1.0
      ],
      "type": "VEC3"
    },
    {
      "bufferView": 3,
      "byteOffset": 398032,
      "componentType": 5126,
      "count": 1123,
      "max": [
        1.0,
        1.0,
        1.0,
        1.0
      ],
      "min": [
        -1.0,
        -1.0,
        -1.0,
        -1.0
      ],
      "type": "VEC4"
    },
    {
      "bufferView": 1,
      "byteOffset": 199016,
      "componentType": 5126,
      "count": 1123,
      "max": [
        0.9854170083999634,
        0.9926689863204956
      ],
      "min": [
        0.020732000470161438,
        0.023545999079942703
      ],
      "type": "VEC2"
    },
    {
      "bufferView": 0,
      "byteOffset": 264768,
      "componentType": 5125,
      "count": 2706,
      "type": "SCALAR"
    },
    {
      "bufferView": 2,
      "byteOffset": 624000,
      "componentType": 5126,
      "count": 65533,
      "max": [
        8456.4931640625,
        5460.24462890625,
        1533.8411865234375
      ],
      "min": [
        -1782.9979248046875,
        -1189.2877197265625,
        -1489.92236328125
      ],
      "type": "VEC3"
    },
    {
      "bufferView": 2,
      "byteOffset": 1410396,
      "componentType": 5126,
      "count": 65533,
      "max": [
        1.0,
        1.0,
        1.0
      ],
      "min": [
        -1.0,
        -1.0,
        -1.0
      ],
      "type": "VEC3"
    },
    {
      "bufferView": 3,
      "byteOffset": 416000,
      "componentType": 5126,
      "count": 65533,
      "max": [
        1.0,
        1.0,
        1.0,
        1.0
      ],
      "min": [
        -1.0,
        -1.0,
        -1.0,
        -1.0
      ],
      "type": "VEC4"
    },
    {
      "bufferView": 1,
      "byteOffset": 208000,
      "componentType": 5126,
      "count": 65533,
      "max": [
        5.978336334228516,
        0.991355299949646
      ],
      "min": [
        5.014112949371338,
        0.017805000767111778
      ],
      "type": "VEC2"
    },
    {
      "bufferView": 0,
      "byteOffset": 275592,
      "componentType": 5125,
      "count": 289107,
      "type": "SCALAR"
    },
    {
      "bufferView": 2,
      "byteOffset": 2196792,
      "componentType": 5126,
      "count": 20622,
      "max": [
        8456.4931640625,
        5395.048828125,
        894.6889038085938
      ],
      "min": [
        -716.2667846679688,
        -1189.2877197265625,
        -1489.92236328125
      ],
      "type": "VEC3"
    },
    {
      "bufferView": 2,
      "byteOffset": 2444256,
      "componentType": 5126,
      "count": 20622,
      "max": [
        1.0,
        1.0,
        1.0
      ],
      "min": [
        -1.0,
        -1.0,
        -1.0
      ],
      "type": "VEC3"
    },
    {
      "bufferView": 3,
      "byteOffset": 1464528,
      "componentType": 5126,
      "count": 20622,
      "max": [
        1.0,
        1.0,
        1.0,
        1.0
      ],
      "min": [
        -1.0,
        -1.0,
        -1.0,
        -1.0
      ],
      "type": "VEC4"
    },
    {
      "bufferView": 1,
      "byteOffset": 732264,
      "componentType": 5126,
      "count": 20622,
      "max": [
        5.958945274353027,
        0.9891960024833679
      ],
      "min": [
        5.026488304138184,
        0.029642000794410706
      ],
      "type": "VEC2"
    },
    {
      "bufferView": 0,
      "byteOffset": 1432020,
      "componentType": 5125,
      "count": 83271,
      "type": "SCALAR"
    },
    {
      "bufferView": 2,
      "byteOffset": 2691720,
      "componentType": 5126,
      "count": 92,
      "max": [
        9134.505859375,
        6131.89599609375,
        2437.67919921875
      ],
      "min": [
        -2501.89111328125,
        -69.85016632080078,
        -2437.67919921875
      ],
      "type": "VEC3"
    },
    {
      "bufferView": 2,
      "byteOffset": 2692824,
      "componentType": 5126,
      "count": 92,
      "max": [
        1.0,
        1.0,
        0.9904170632362366
      ],
      "min": [
        -1.0,
        -0.35460513830184937,
        -0.9904170632362366
      ],
      "type": "VEC3"
    },
    {
      "bufferView": 1,
      "byteOffset": 897240,
      "componentType": 5126,
      "count": 92,
      "max": [
        0.1532437950372696,
        0.917517900466919
      ],
      "min": [
        0.09123799949884415,
        0.8568012714385986
      ],
      "type": "VEC2"
    },
    {
      "bufferView": 0,
      "byteOffset": 1765104,
      "componentType": 5125,
      "count": 198,
      "type": "SCALAR"
    }
  ],
  "asset": {
    "extras": {
      "author": "Daniel K. (https://sketchfab.com/danielkey)",
      "license": "CC-BY-4.0 (http://creativecommons.org/licenses/by/4.0/)",
      "source": "https://sketchfab.com/3d-models/warhammer-40k-ship-demo-7f1ecea73a0143f185544f4c7b1a1f96",
      "title": "Warhammer 40k Ship Demo"
    },
    "generator": "Sketchfab-12.65.0",
    "version": "2.0"
  },
  "bufferViews": [
    {
      "buffer": 0,
      "byteLength": 1765896,
      "name": "floatBufferViews",
      "target": 34963
    },
    {
      "buffer": 0,
      "byteLength": 897976,
      "byteOffset": 1765896,
      "byteStride": 8,
      "name": "floatBufferViews",
      "target": 34962
    },
    {
      "buffer": 0,
      "byteLength": 2693928,
      "byteOffset": 2663872,
      "byteStride": 12,
      "name": "floatBufferViews",
      "target": 34962
    },
    {
      "buffer": 0,
      "byteLength": 1794480,
      "byteOffset": 5357800,
      "byteStride": 16,
      "name": "floatBufferViews",
      "target": 34962
    }
  ],
  "buffers": [
    {
      "byteLength": 7152280,
      "uri": "scene.bin"
    }
  ],
  "images": [
    {
      "uri": "textures/lambert6_baseColor.png"
    },
    {
      "uri": "textures/lambert6_metallicRoughness.png"
    },
    {
      "uri": "textures/lambert6_normal.png"
    },
    {
      "uri": "textures/lambert8_baseColor.png"
    },
    {
      "uri": "textures/lambert8_metallicRoughness.png"
    },
    {
      "uri": "textures/lambert8_normal.png"
    },
    {
      "uri": "textures/lambert5_baseColor.png"
    },
    {
      "uri": "textures/lambert5_metallicRoughness.png"
    },
    {
      "uri": "textures/lambert5_normal.png"
    },
    {
      "uri": "textures/lambert7_baseColor.png"
    },
    {
      "uri": "textures/lambert7_metallicRoughness.png"
    },
    {
      "uri": "textures/lambert7_normal.png"
    },
    {
      "uri": "textures/lambert10_baseColor.png"
    },
    {
      "uri": "textures/lambert10_metallicRoughness.png"
    },
    {
      "uri": "textures/lambert10_normal.png"
    },
    {
      "uri": "textures/lambert9_baseColor.png"
    },
    {
      "uri": "textures/lambert9_metallicRoughness.png"
    },
    {
      "uri": "textures/lambert9_emissive.png"
    },
    {
      "uri": "textures/lambert9_normal.png"
    }
  ],
  "materials": [
    {
      "doubleSided": true,
      "name": "lambert6",
      "normalTexture": {
        "index": 2
      },
      "occlusionTexture": {
        "index": 1
      },
      "pbrMetallicRoughness": {
        "baseColorTexture": {
          "index": 0
        },
        "metallicRoughnessTexture": {
          "index": 1
        }
      }
    },
    {
      "doubleSided": true,
      "name": "lambert8",
      "normalTexture": {
        "index": 5
      },
      "occlusionTexture": {
        "index": 4
      },
      "pbrMetallicRoughness": {
        "baseColorTexture": {
          "index": 3
        },
        "metallicRoughnessTexture": {
          "index": 4
        }
      }
    },
    {
      "doubleSided": true,
      "name": "lambert5",
      "normalTexture": {
        "index": 8
      },
      "occlusionTexture": {
        "index": 7
      },
      "pbrMetallicRoughness": {
        "baseColorTexture": {
          "index": 6
        },
        "metallicRoughnessTexture": {
          "index": 7
        }
      }
    },
    {
      "doubleSided": true,
      "name": "lambert7",
      "normalTexture": {
        "index": 11
      },
      "occlusionTexture": {
        "index": 10
      },
      "pbrMetallicRoughness": {
        "baseColorTexture": {
          "index": 9
        },
        "metallicRoughnessTexture": {
          "index": 10
        }
      }
    },
    {
      "doubleSided": true,
      "name": "lambert10",
      "normalTexture": {
        "index": 14
      },
      "occlusionTexture": {
        "index": 13
      },
      "pbrMetallicRoughness": {
        "baseColorTexture": {
          "index": 12
        },
        "metallicRoughnessTexture": {
          "index": 13
        }
      }
    },
    {
      "doubleSided": true,
      "emissiveFactor": [
        1.0,
        1.0,
        1.0
      ],
      "emissiveTexture": {
        "index": 17
      },
      "name": "lambert9",
      "normalTexture": {
        "index": 18
      },
      "occlusionTexture": {
        "index": 16
      },
      "pbrMetallicRoughness": {
        "baseColorTexture": {
          "index": 15
        },
        "metallicRoughnessTexture": {
          "index": 16
        }
      }
    },
    {
      "alphaMode": "BLEND",
      "doubleSided": true,
      "name": "phongE1",
      "pbrMetallicRoughness": {
        "baseColorFactor": [
          0.5,
          0.5,
          0.5,
          0.17195489727547442
        ],
        "metallicFactor": 0.0,
        "roughnessFactor": 0.8942628736559436
      }
    }
  ],
  "meshes": [
    {
      "name": "polySurface2100_lambert6_0",
      "primitives": [
        {
          "attributes": {
            "NORMAL": 1,
            "POSITION": 0,
            "TANGENT": 2,
            "TEXCOORD_0": 3
          },
          "indices": 4,
          "material": 0,
          "mode": 4
        }
      ]
    },
    {
      "name": "polySurface2100_lambert8_0",
      "primitives": [
        {
          "attributes": {
            "NORMAL": 6,
            "POSITION": 5,
            "TANGENT": 7,
            "TEXCOORD_0": 8
          },
          "indices": 9,
          "material": 1,
          "mode": 4
        }
      ]
    },
    {
      "name": "polySurface2100_lambert5_0",
      "primitives": [
        {
          "attributes": {
            "NORMAL": 11,
            "POSITION": 10,
            "TANGENT": 12,
            "TEXCOORD_0": 13
          },
          "indices": 14,
          "material": 2,
          "mode": 4
        }
      ]
    },
    {
      "name": "polySurface2100_lambert7_0",
      "primitives": [
        {
          "attributes": {
            "NORMAL": 16,
            "POSITION": 15,
            "TANGENT": 17,
            "TEXCOORD_0": 18
          },
          "indices": 19,
          "material": 3,
          "mode": 4
        }
      ]
    },
    {
      "name": "polySurface2100_lambert10_0",
      "primitives": [
        {
          "attributes": {
            "NORMAL": 21,
            "POSITION": 20,
            "TANGENT": 22,
            "TEXCOORD_0": 23
          },
          "indices": 24,
          "material": 4,
          "mode": 4
        }
      ]
    },
    {
      "name": "polySurface2100_lambert9_0",
      "primitives": [
        {
          "attributes": {
            "NORMAL": 26,
            "POSITION": 25,
            "TANGENT": 27,
            "TEXCOORD_0": 28
          },
          "indices": 29,
          "material": 5,
          "mode": 4
        }
      ]
    },
    {
      "name": "polySurface2100_lambert9_0",
      "primitives": [
        {
          "attributes": {
            "NORMAL": 31,
            "POSITION": 30,
            "TANGENT": 32,
            "TEXCOORD_0": 33
          },
          "indices": 34,
          "material": 5,
          "mode": 4
        }
      ]
    },
    {
      "name": "polySurface2100_phongE1_0",
      "primitives": [
        {
          "attributes": {
            "NORMAL": 36,
            "POSITION": 35,
            "TEXCOORD_0": 37
          },
          "indices": 38,
          "material": 6,
          "mode": 4
        }
      ]
    }
  ],
  "nodes": [
    {
      "children": [
        1
      ],
      "matrix": [
        1.0,
        0.0,
        0.0,
        0.0,
        0.0,
        2.220446049250313e-16,
        -1.0,
        0.0,
        0.0,
        1.0,
        2.220446049250313e-16,
        0.0,
        0.0,
        0.0,
        0.0,
        1.0
      ],
      "name": "Sketchfab_model"
    },
    {
      "children": [
        2
      ],
      "matrix": [
        1.0,
        0.0,
        0.0,
        0.0,
        0.0,
        0.0,
        1.0,
        0.0,
        0.0,
        -1.0,
        0.0,
        0.0,
        0.0,
        0.0,
        0.0,
        1.0
      ],
      "name": "d020f10bb7604a0e807956af8c0fd46b.fbx"
    },
    {
      "children": [
        3,
        5
      ],
      "name": "RootNode"
    },
    {
      "children": [
        4
      ],
      "matrix": [
        0.009305587642697581,
        -0.0025440535125082105,
        -0.002633215881620874,
        0.0,
        0.0024479340662417037,
        0.009670976540926276,
        -0.0006926955188527804,
        0.0,
        0.0027228024094779844,
        6.938893748810864e-19,
        0.009622179720239722,
        0.0,
        -324.7452087402344,
        100.75498962402344,
        95.4764404296875,
        1.0
      ],
      "name": "persp1"
    },
    {
      "name": "Object_4"
    },
    {
      "children": [
        6,
        7,
        8,
        9,
        10,
        11,
        12,
        13
      ],
      "matrix": [
        0.009999999776482582,
        0.0,
        0.0,
        0.0,
        0.0,
        0.009999999776482582,
        0.0,
        0.0,
        0.0,
        0.0,
        0.009999999776482582,
        0.0,
        -4.547473508864641e-13,
        0.0,
        -1.3552527156068805e-20,
        1.0
      ],
      "name": "polySurface2100"
    },
    {
      "mesh": 0,
      "name": "polySurface2100_lambert6_0"
    },
    {
      "mesh": 1,
      "name": "polySurface2100_lambert8_0"
    },
    {
      "mesh": 2,
      "name": "polySurface2100_lambert5_0"
    },
    {
      "mesh": 3,
      "name": "polySurface2100_lambert7_0"
    },
    {
      "mesh": 4,
      "name": "polySurface2100_lambert10_0"
    },
    {
      "mesh": 5,
      "name": "polySurface2100_lambert9_0"
    },
    {
      "mesh": 6,
      "name": "polySurface2100_lambert9_0"
    },
    {
      "mesh": 7,
      "name": "polySurface2100_phongE1_0"
    }
  ],
  "samplers": [
    {
      "magFilter": 9729,
      "minFilter": 9987,
      "wrapS": 10497,
      "wrapT": 10497
    }
  ],
  "scene": 0,
  "scenes": [
    {
      "name": "Sketchfab_Scene",
      "nodes": [
        0
      ]
    }
  ],
  "textures": [
    {
      "sampler": 0,
      "source": 0
    },
    {
      "sampler": 0,
      "source": 1
    },
    {
      "sampler": 0,
      "source": 2
    },
    {
      "sampler": 0,
      "source": 3
    },
    {
      "sampler": 0,
      "source": 4
    },
    {
      "sampler": 0,
      "source": 5
    },
    {
      "sampler": 0,
      "source": 6
    },
    {
      "sampler": 0,
      "source": 7
    },
    {
      "sampler": 0,
      "source": 8
    },
    {
      "sampler": 0,
      "source": 9
    },
    {
      "sampler": 0,
      "source": 10
    },
    {
      "sampler": 0,
      "source": 11
    },
    {
      "sampler": 0,
      "source": 12
    },
    {
      "sampler": 0,
      "source": 13
    },
    {
      "sampler": 0,
      "source": 14
    },
    {
      "sampler": 0,
      "source": 15
    },
    {
      "sampler": 0,
      "source": 16
    },
    {
      "sampler": 0,
      "source": 17
    },
    {
      "sampler": 0,
      "source": 18
    }
  ]
}
